<?xml version="1.0" encoding="UTF-8"?>
<svg id="_Слой_1" data-name="Слой 1" xmlns="http://www.w3.org/2000/svg" viewBox="0 0 869.99 857.47">
  <defs>
    <style>
      .cls-1 {
        fill: #d96c22;
      }

      .cls-2 {
        fill: #cec2ad;
      }

      .cls-3 {
        fill: #f3e8d3;
      }

      .cls-4 {
        fill: #0f2e4a;
      }
    </style>
  </defs>
  <path class="cls-4" d="M838.95,542.64c-3.31,3.76-58.24,26.27-67.34,29.86-1.16,6.82-2.3,13.69-3.88,20.43-6.3,27.04-18.75,50.66-37.94,70.87-21.38,22.53-48.27,38.5-74.4,54.85l-56.55,35.54-156.49,98.92c-2.35,1.54-4.75,2.95-7.18,4.36-16.25-9.32-31.94-19.96-47.74-30.05l-76.63-48.57-80.71-50.84c-19.67-12.34-39.72-24.34-58.65-37.8-44.83-31.88-63.77-63.32-72.88-117.47-14.64-6.1-29.23-12.32-43.76-18.67-7.87-3.4-16.58-6.41-23.9-10.83-2.98-15.36-4.28-32.1-6.31-47.71l-12.8-99.8-8.07-63.47c-1.45-11.46-4.09-23.98-3.68-35.5,9.21-1.34,22.06-.38,31.62-.37l64.4,.04,.02-110.12c5.74-5.4,14.48-9.2,21.5-12.76,47.24-24.03,98.95-38.97,150.46-50.67,8.12-22.26,17.99-42.18,33.26-60.48C333.74,23.52,375.26,5.16,424.97,.6c25.61-2.89,58.61,4.98,82.04,15.51,31.72,14.26,59.92,39.7,77.65,69.58,7.11,11.99,12.26,24.41,17.21,37.41,13.02,2.43,26.01,5.91,38.78,9.36,38.14,10.33,76.52,23.28,111.72,41.43,7.05,3.64,14.39,7.19,20.67,12.08l.03,110.45c10.94,0,94.24-.91,96.91,.78,.67,3.84-29.57,240.14-31.03,245.44Z"/>
  <path class="cls-3" d="M838.95,542.64c-3.31,3.76-58.24,26.27-67.34,29.86-1.16,6.82-2.3,13.69-3.88,20.43-6.3,27.04-18.75,50.66-37.94,70.87-21.38,22.53-48.27,38.5-74.4,54.85l-56.55,35.54-156.49,98.92c-2.35,1.54-4.75,2.95-7.18,4.36-16.25-9.32-31.94-19.96-47.74-30.05l-76.63-48.57-80.71-50.84c-19.67-12.34-39.72-24.34-58.65-37.8-44.83-31.88-63.77-63.32-72.88-117.47-14.64-6.1-29.23-12.32-43.76-18.67-7.87-3.4-16.58-6.41-23.9-10.83-2.98-15.36-4.28-32.1-6.31-47.71l-12.8-99.8-8.07-63.47c-1.45-11.46-4.09-23.98-3.68-35.5,9.21-1.34,22.06-.38,31.62-.37l64.4,.04,.02-110.12c5.74-5.4,14.48-9.2,21.5-12.76,47.24-24.03,98.95-38.97,150.46-50.67,8.12-22.26,17.99-42.18,33.26-60.48C333.74,23.52,375.26,5.16,424.97,.6c25.61-2.89,58.61,4.98,82.04,15.51,31.72,14.26,59.92,39.7,77.65,69.58,7.11,11.99,12.26,24.41,17.21,37.41,13.02,2.43,26.01,5.91,38.78,9.36,38.14,10.33,76.52,23.28,111.72,41.43,7.05,3.64,14.39,7.19,20.67,12.08l.03,110.45c10.94,0,94.24-.91,96.91,.78,.67,3.84-29.57,240.14-31.03,245.44Z"/>
  <path class="cls-4" d="M426.16,16.14c27.13-2.7,57.78,5.14,81.72,17.57,32.67,16.96,58.39,44.8,72.73,78.7,3.63,8.64,5.83,17.46,8.65,26.34,12.26,3.07,24.81,5.04,37.1,8.17,44.47,11.34,88.79,26.77,129.2,48.71v82.27c0,8.56-1.19,28.36,.48,35.54,.26,.21,.47,.48,.77,.61,2.15,.98,85.24,.34,95.44,.35-7.07,50.75-13.02,101.73-19.42,152.58-2.67,21.22-4.89,42.61-8.18,63.74-15.89,7.35-32.25,13.91-48.28,20.98-6.83,3.01-14.17,5.74-20.6,9.52-.85,9.17-1.81,18.3-3.86,27.3-5.63,24.72-17.35,46.96-35.01,65.17-19.88,20.49-45.09,35.08-69.11,50.1l-60.26,37.66-146.18,92.6-6.15,3.89c-20.59-12.12-40.49-25.84-60.66-38.68l-104.91-66.33c-18.14-11.47-36.35-22.84-54.62-34.1-16.89-10.5-33.96-20.86-49.29-33.6-33.4-27.77-47.61-61.99-51.53-104.31-8-4.22-16.67-7.53-24.97-11.12l-43.73-18.87-16.64-129.89c-3.64-28.87-7.68-57.73-10.97-86.64h63.18c8.83,0,23.67,1.15,31.82-.79,1.81-3.86,.76-102.79,.75-117.61,35.43-19.28,73.95-33.56,112.69-44.61,11.91-3.4,23.98-6.91,36.11-9.4,4.07-.84,13.96-1.41,16.9-3.43,1.01-.69,1.73-2.57,2.15-3.65,1.58-3.97,2.47-8.4,3.73-12.5,1.99-6.44,4.63-12.76,7.56-18.83,6.26-12.96,14.62-24.84,24.13-35.62,28.02-31.78,67.38-49.12,109.26-51.81Z"/>
  <path class="cls-1" d="M390.37,509.13c113.65-1.1,227.3,2.43,340.67,10.57,.96,19.73-.65,39.51-4.77,58.83-4.48,20.83-12.81,40.13-27.56,55.8-17.97,19.09-43.82,33.32-66.32,46.54-14.77,8.57-29.46,17.29-44.06,26.15-41.93,25.32-83.43,51.33-124.48,78.04-9.48,6.24-18.89,12.66-28.57,18.59-11.51-6.4-22.52-14.73-33.61-21.9-21.73-14.06-43.6-27.9-65.6-41.53-26.07-16.1-52.24-32.03-78.5-47.8-26.03-15.51-63.84-35.96-84.74-57.2-29.82-30.3-33.7-75.06-33.29-115.28,10.08-1.41,20.55-1.8,30.71-2.49,19.42-1.36,38.86-2.45,58.32-3.29,53.9-2.66,107.85-4.34,161.81-5.03Z"/>
  <path class="cls-4" d="M413.9,673.65c33.31-.47,66.63-.01,99.92,1.38,13.2,.62,26.35,1.88,39.54,2.61-37.25,8.43-72.32,27.46-104.71,47.2-4.45,2.63-8.82,5.43-13.22,8.14-32.5-20.13-81.35-48.88-119.17-55.27,32.61-1.95,64.96-3.61,97.64-4.07Z"/>
  <path class="cls-3" d="M252.68,596.5c4.7-.34,9.26-.32,13.63,1.7,4.84,2.23,8.55,6.36,10.24,11.41,2.37,6.97,1.77,16.34-1.75,22.82-3.31,6.08-8.34,9.19-14.82,10.98-5.96,.98-11.86,.42-17.05-2.9-4.68-3-7.74-7.73-8.9-13.14-1.49-6.92-.53-15.6,3.43-21.52,3.68-5.5,8.9-8.08,15.2-9.35Z"/>
  <path class="cls-1" d="M253.78,605.93c2.33-.15,4.79-.2,7,.66,2.87,1.12,5.04,3.38,6.16,6.24,1.62,4.15,1.32,9.92-.57,13.93-1.93,4.09-4.54,5.79-8.68,7.3-2.39,.22-5.06,.2-7.31-.72-2.86-1.18-5.01-3.5-6.09-6.37-1.59-4.2-1.33-9.76,.66-13.79,1.98-4.01,4.76-5.77,8.85-7.25Z"/>
  <path class="cls-3" d="M364.83,532.5c4.25-.14,8.44-.17,12.69,.04,4.84,8.75,8.39,18.48,12.69,27.53,3.86-9.24,7.56-18.6,11.78-27.68,4.22-.02,8.44,0,12.66,.06,.37,15.45,.22,30.96,0,46.41-3.31,.16-6.61,.15-9.92,.15-.42-5.74-.21-11.58-.22-17.34l.03-13.66c-2.64,5.79-8.22,21.14-11.79,25.17-1.07,1.2-1.92,1.48-3.48,1.6-4.83-1.93-11.55-20.52-14.27-26.15,.07,10.04,.22,20.16-.26,30.18-3.23,.16-6.48,.11-9.72,.12-.61-6.66-.29-13.6-.33-20.3-.05-8.68-.36-17.48,.14-26.15Z"/>
  <path class="cls-3" d="M524.5,597.06c4.15-.1,8.25-.07,12.4,.12,.39,6.94,.08,14.07,.09,21.04,.01,8.19,.31,16.51-.25,24.68l-9.54,.04c-.37-6.84-.13-13.81-.15-20.66l.07-9.71c-2.1,4.66-9.33,24.34-13.01,25.98-1.17,.52-2.08,.67-3.25,.05-3.8-2.03-11.14-21.52-13.14-26.34,.29,10.23,.27,20.42,.22,30.66l-9.36,.13-.04-1.06c-.23-5.74-1.45-42.4,.81-44.83,3.8-.13,7.53-.13,11.32,.06,4.92,8.59,8.14,18.52,12.51,27.46,3.9-9.14,7.37-18.45,11.3-27.58Z"/>
  <path class="cls-3" d="M347.72,597.15c2.96-.03,5.98-.16,8.93,.09,4.71,.39,9.64,1.86,12.69,5.7,2.55,3.21,3.23,7.75,2.59,11.71-.85,5.3-3.68,8.3-7.83,11.29,3.39,5.05,6.13,10.51,8.99,15.86-3.17,1.04-6.33,1.48-9.64,1.8-1.18-1.51-2.22-3.18-3.31-4.75-2.19-3.79-4.46-8.88-8.25-11.21-.9,.03-1.06-.18-1.7,.66-2.14,2.8-1.24,11.07-1.21,14.58l-9.96,.08c-.68-5.55-.36-11.39-.35-16.98,0-9.61,.09-19.22,.26-28.83h8.79Z"/>
  <path class="cls-1" d="M348.91,606.36c3.27,0,6.78-.09,9.79,1.34,1.44,.69,2.67,1.74,3,3.39,.42,2.11-.49,4.06-1.5,5.84-3.53,1.73-7.52,1.48-11.35,1.52l.06-12.09Z"/>
  <path class="cls-3" d="M621.15,625.76c-.03-4.72-1.05-25.85,1.06-28.26,2.78-.61,5.55-.45,8.38-.41,.17,5.94,1.02,43.2-.64,45.75l-7.82,.13c-7.05-7.38-14.6-20.24-20.54-28.92,.41,9.59,.17,19.25,.04,28.84l-9.42,.02c-.26-6.99-1-40.3,.3-45.14l1.15-.65c2.44-.09,4.91,.06,7.36,.13,7.3,8.71,13.53,19.19,20.13,28.5Z"/>
  <path class="cls-3" d="M413.12,597.42c3.14-.33,6.3-.35,9.46-.41,.1,14.81,.99,30.29-.12,45.03-.95,1.05-1.42,.8-2.76,.91-1.8,.09-3.41,.13-5.19-.16-4.41-3.1-17.21-23.64-20.9-29.3,1.11,9.41,.44,19.89,.26,29.38-3.08,.06-6.18,.04-9.26,.05-.27-7.99-.12-16.03-.17-24.03-.04-6.83-.42-13.86,.24-20.66,.94-1.1,1.59-.93,2.99-1.14,1.23-.02,2.57-.11,3.79,.1,1.02,.18,1.4,.28,2.14,1.01,4.84,4.77,15.09,21.23,19.51,27.51l.03-28.29Z"/>
  <path class="cls-3" d="M444.65,532.35c3.47-.08,6.95,.05,10.42,.11,5.74,15.04,11.32,30.14,16.71,45.31-3.2,1.03-6.23,1.48-9.55,1.77-1.08-2.22-1.67-5.75-3.3-7.59-1.06-1.19-1.78-.93-3.23-.96l-15.31-.02c-1,2.87-2.12,5.7-3.34,8.49-3.34-.24-6.46-.72-9.71-1.51,1.43-5.37,3.87-10.76,5.88-15.96l11.44-29.64Z"/>
  <path class="cls-1" d="M449.25,546.21c2.06,2.05,5.19,12.19,6.1,15.37-1.3,.63-2.73,.42-4.15,.42l-7.71-.05c1.79-5.29,3.71-10.54,5.76-15.73Z"/>
  <path class="cls-3" d="M450.8,597.04c3.23-.06,6.47-.03,9.7-.03,3.7,8.85,7.04,17.89,10.46,26.85,2.11,5.52,5.1,11.65,6.03,17.48-2.08,2.03-6.36,1.9-9.16,2.14-.88-2.14-1.44-5.87-3.01-7.52-1.21-1.28-1.99-1-3.62-1.04l-14.8,.03c-1.02,2.8-2.11,5.55-3.27,8.3-3-.17-5.89-.13-8.65-1.49-1-3.22,14.03-39.16,16.32-44.72Z"/>
  <path class="cls-1" d="M455.28,610.76c2.41,2.43,4.76,11.3,6.02,14.86-1.25,.74-3.07,.44-4.48,.42l-7.38-.02,5.84-15.26Z"/>
  <path class="cls-3" d="M289.13,597.13c3.13-.17,6.25-.08,9.38,0,.2,7.62-2.05,29.17,2.44,34.45,1.34,1.58,3.26,2.37,5.3,2.49,2.52,.16,5.19-.45,7.07-2.22,1.49-1.41,2.32-3.35,2.71-5.33,1.44-7.29,.23-21.12,.4-29.13,3.35-.28,6.69-.29,10.05-.29l.04,10.16c-.07,8.26,1.64,24.19-3.93,30.83-3.15,3.76-8.27,5.36-13,5.78-5.58,.49-11.84-.41-16.16-4.25-3.93-3.49-4.86-9.03-5.18-14.04-.19-3.01-.58-26.12,.11-27.58,.17-.35,.52-.58,.77-.87Z"/>
  <path class="cls-3" d="M329.6,531.52c3.14-.14,6.12-.25,9.22,.49,3.85,.92,8.44,2.45,10.58,5.99,.07,.92,.23,1.38-.18,2.24-1.24,2.57-4.56,3.36-7.04,4.35-1.66-1.58-3.27-2.99-5.57-3.51-3.11-.7-6.77-.49-9.46,1.28-.59,1.14-.86,1.42-.44,2.73,1.89,5.82,14.18,6.14,19.03,8.98,2.74,1.61,4.42,4.03,5.08,7.12,.83,3.89,.43,8.66-1.98,11.96-3.24,4.45-8.35,5.76-13.45,6.74-2.5,.08-5.04,0-7.49-.54-3.73-.82-10.61-3.25-12.49-6.92-.56-1.09-.73-2.19-.17-3.34,1.13-2.28,4.43-3.08,6.64-3.92,1.35,1.3,2.83,2.59,4.48,3.49,3.03,1.64,7.06,2.35,10.41,1.34,1.5-.45,3.15-1.54,3.75-3.07,.3-.77,.47-1.4,.14-2.18-1.8-4.34-12.25-5.56-16.34-7.62-3.5-1.76-6.44-4.6-7.51-8.47-.86-3.12-.46-7.55,1.24-10.34,2.5-4.1,7.09-5.87,11.56-6.81Z"/>
  <path class="cls-3" d="M552.13,597.14c9.43-.26,19.05-.36,28.47,.09,.08,2.97,.01,5.95,0,8.92-6.47,.37-13.04,.19-19.52,.23v8.38c3.97,.07,8.05-.51,12-.18,2.09,.18,3.37,.57,4.75,2.21,.45,1.35,.55,2.32,.31,3.74-1.31,7.73-12.67,1.15-16.86,4.21l-.19,1.53v7.32c6.5-.07,13.06-.27,19.55,.21,.18,3.03,.13,6.07,.12,9.1-9.9,.09-19.79,.1-29.69,.04-.4-8.98-.15-18.06-.17-27.05,0-5.82-.69-12.52,.38-18.18l.86-.57Z"/>
  <path class="cls-3" d="M642.8,597.15c10.61-.22,21.45-.48,32.04,.17,.25,2.93,.15,5.89,.13,8.83-3.82,.31-7.75,.19-11.58,.24-.32,8.71,.05,17.54,.11,26.26,.07,3.4-.06,6.78-.17,10.17-3.34,.2-6.7,.18-10.04,.21-.61-12.15-.2-24.49-.2-36.66-3.79,.04-7.58,0-11.37-.14-.19-2.77-.52-5.76,.12-8.48l.97-.58Z"/>
  <path class="cls-3" d="M194.09,597.11c10.92-.26,22.07-.38,32.98,.14,.09,2.95,.09,5.9,.12,8.85-3.74,.39-7.58,.26-11.34,.28l.15,26.65c0,2.75,.45,5.77-.65,8.34-2.64,2.4-6.25,1.64-9.61,1.55-.68-12.11-.24-24.41-.23-36.54l-11.35-.02c-.22-3.14-.33-6.1-.07-9.24Z"/>
  <path class="cls-3" d="M526.21,532.55c3.41-.17,6.76-.13,10.17,.02,.75,12.15,.22,24.65,.24,36.84,6.24-.02,12.59-.3,18.81,.32,.1,3.12,.06,6.09-.25,9.2-9.42,.38-19.14,.29-28.55-.11-.91-5.9-.52-12.26-.53-18.22-.06-9.35-.02-18.7,.12-28.05Z"/>
  <path class="cls-3" d="M485.07,532.53c3.35-.19,6.73-.09,10.09-.07l.09,36.97c6.36-.02,12.89-.32,19.21,.29,.09,3.12-.02,6.15-.27,9.26-7.97,0-20.42,1.09-27.65-.21-2.91-3.73-1.73-39.51-1.47-46.25Z"/>
  <path class="cls-1" d="M275.65,169.6l.26,.05c1.1,1.54,.8,17.64,1.2,21.05,1.29,11.73,3.89,23.27,7.76,34.42,12.79,37.26,41.44,72.31,77.04,89.77-5.45-.58-11.11-.32-16.6-.33h-27.78s-88.83,.15-88.83,.15c-28.87,.38-57.76,.03-86.63,.11-.35-33.51-.68-67.28,.11-100.79,6.36-4.83,15.84-7.85,23.25-10.8,25.01-10.08,50.58-18.69,76.6-25.79,11.02-3.01,22.33-6.11,33.63-7.85Z"/>
  <path class="cls-1" d="M593.09,169.19c33.64,7.1,66.66,16.83,98.78,29.08,12.02,4.5,24.13,8.98,35.64,14.69-.74,33.82,.2,67.69-.34,101.52-27.8,.47-55.67,.11-83.47,.09l-137.11-.04c15.38-8.25,29.23-18.14,41.65-30.42,32.25-31.86,44.59-70.46,44.84-114.93Z"/>
  <path class="cls-3" d="M462.96,91.15c13.52,6.09,26.69,16.77,37.23,27.05,21.49,20.97,35.89,44.17,42.14,73.73,1.35,6.38,2.72,13.21,2.81,19.73,1.42,12.94,.8,40.79-7.42,51.12-15.24,19.16-38.99,34.29-61.88,42.25,4.87-7.35,9.02-14.75,12.42-22.9,1.59-3.82,2.78-7.92,4.49-11.65,3.11-10.35,4.74-21.09,4.85-31.9,.18-34.65-17.81-67.04-44.2-88.79-4.5-3.71-17.18-10.99-19.73-14.2-1.1-1.39-1.19-3.01-.98-4.69,1.39-11.17,21.31-33.03,30.27-39.75Z"/>
  <path class="cls-2" d="M545.15,211.66c1.42,12.94,.8,40.79-7.42,51.12-15.24,19.16-38.99,34.29-61.88,42.25,4.87-7.35,9.02-14.75,12.42-22.9,1.59-3.82,2.78-7.92,4.49-11.65l.68,.58c4.23-.8,19.12-14.11,22.52-17.33,8.24-7.83,25.73-26.56,28.79-37.39,.41-1.45,.36-3.18,.4-4.68Z"/>
  <path class="cls-3" d="M175.61,346.58c9.23-.99,21.15,.87,28.7,6.6,6.18,4.69,9.41,12.93,10.35,20.45,1.53,12.29,.51,25.62,.48,38.03-.04,14.18,1.12,29.55-.96,43.58-.8,5.41-2.47,12.2-5.93,16.51-6.43,8.01-14.85,10.24-24.56,11.5-9.76,.99-21.03-.5-28.92-6.77-6.82-5.42-9.32-13.43-10.27-21.79-1.47-12.89-.54-26.65-.47-39.63,.07-12.97-.86-28.91,1.19-41.56,.88-5.46,2.51-11.36,6.07-15.7,6.09-7.43,15.17-10.14,24.33-11.23Z"/>
  <path class="cls-4" d="M177.43,368.55c2.9-.19,5.76-.2,8.46,1.04,2.02,.93,3.76,2.77,4.44,4.91,1.91,5.97,1.5,64.85,.85,74.18-.2,2.81-.41,6.46-1.82,8.92-1.6,2.8-3.87,3.64-6.88,4.36-3.29,.36-6.94,.76-9.95-.94-2.01-1.14-3.04-2.8-3.59-5-2.54-10.21-1.26-31.66-1.26-42.76,0-11.19-.8-23.13,.42-34.24,.24-2.2,.65-4.26,1.85-6.16,1.81-2.86,4.32-3.67,7.48-4.31Z"/>
  <path class="cls-3" d="M317.39,101.67c2.82,2.2,4.93,7.93,6.71,11.12,14.85,26.69,47.07,41.43,76.78,41.31,2.3,0,4.75,.09,7.02-.19,6.17-.76,11.01-2.65,17.33-.8,18.26,5.35,34.23,25.83,42.88,41.86-6.12,4.68-12.08,6.86-19.47,8.95-32.3,7.62-65.03,8.22-96.34-4.44-23.96-9.69-41.92-26.48-52-50.24,1.87-16.73,8.3-33.31,17.09-47.57Z"/>
  <path class="cls-3" d="M515.01,348.54c12.54-.07,26.07-1.14,38.48,.42,7.69,.97,15,3.78,19.79,10.2,6.57,8.8,7.27,22.79,5.86,33.26-1.08,8.02-4.45,13.21-10.84,18.04,6.08,3.05,9.81,6.78,12.03,13.38,4.15,12.32,2.43,28.51-3.29,40.05-1.46,2.33-2.95,4.45-5.05,6.25-10.37,8.86-25.39,7.2-38.04,6.93-6.91-.15-13.85-.17-20.74-.72-.52-7.95-.14-16.15-.14-24.12-.01-16,.08-32.01,.28-48.01l.11-34.15c.01-5.86-.31-11.96,.14-17.8,.14-1.79,.36-2.27,1.41-3.74Z"/>
  <path class="cls-4" d="M536.09,422.94c5.65-.05,14.29-1.1,19.13,2.21,2.6,1.78,3.77,4.73,4.2,7.75,.96,6.63,.42,14.17-3.61,19.69-.11,.11-.22,.22-.34,.33-5.49,4.95-12.64,3.2-19.41,2.73-.11-10.9,0-21.81,.02-32.71Z"/>
  <path class="cls-4" d="M536.56,369.57c4.66-.12,11.88-1.12,15.71,2.13,3.39,2.87,4.27,7.95,4.48,12.15,.27,5.44,.01,11.47-3.76,15.69-5.19,3.4-10.93,2.92-16.85,2.94,.24-10.97,.39-21.94,.43-32.91Z"/>
  <path class="cls-3" d="M297.84,177.07c3.98,3.21,8.6,10.06,12.42,14.01,12.14,12.57,29.43,22.46,45.79,28.19,32.14,11.26,71.52,9.8,103.57-1.59,5.42-1.93,10.55-4.52,15.71-7.02,5.94,13.64,5.72,28.92,3.05,43.27-.29,1.47-.46,3.42-1.44,4.61-7.04,8.61-46.54,12.96-58.56,13.63-36.43,2.04-74.36-9.5-101.59-34.11-13.68-12.37-18.15-43.39-18.96-60.99Z"/>
  <path class="cls-3" d="M615.74,347.98c5.84-.21,23.92-1.25,28.53,1,1.12,2.07,1.66,4.32,2.14,6.61,5.17,24.69,9.24,49.74,13.95,74.55,1.25,6.58,9.28,44.34,8.82,48.43-.1,.9-.21,1.19-.93,1.7-3.89,2.74-17,.75-21.74,0-1.95-6.77-2.64-14.27-3.72-21.24l-.57-4.09c-8.04-.03-16.08-.3-24.12-.49-1.22,6.03-1.2,17.93-4.48,22.7-.75,1.09-1.75,1.82-3.1,1.93-3.74,.32-16.15,.01-18.6-2.4,1.07-9.23,3.04-18.41,4.72-27.54l7.62-41.88c1.71-9.38,8.74-54.07,11.5-59.27Z"/>
  <path class="cls-4" d="M629.87,380.81c1.33,1.81,7.51,45.46,8.56,52.09l-7-.33-9.99-.13,8.44-51.63Z"/>
  <path class="cls-3" d="M59.81,348.4c3.67-.05,19.49-1.05,21.7,.39,.41,.27,.35,.34,.5,.82,3.04,10.05,3.79,23.44,5.3,33.97l9.79,67.8c2.67-22.11,6.96-44.18,10.29-66.21,.89-5.92,3.8-30.41,5.4-34.46,.48-1.21,1.62-1.48,2.78-1.79,4.82-1.26,16.85-1.57,21.25,.95,.73,2.05-4.22,26.02-4.92,29.65-1.67,10.62-17.39,99.11-19.19,102.28-.77,1.35-1.87,1.79-3.34,2.09-3.85,.8-25.07,1.96-27.8,.08-2.59-8.14-3.47-17.43-4.94-25.88l-8.43-48.55-7.03-40.09c-1.01-5.79-2.74-12.23-3.05-18.05-.09-1.57,.69-1.96,1.69-3Z"/>
  <path class="cls-3" d="M446.17,37.45c16.92-.88,42.84,10.1,57.79,17.89-5.97,1.34-11.68,3.23-17.35,5.53-32.86,13.28-60.3,37.42-74.26,70.4-.8,2.17-1.82,4.2-2.85,6.27-1.26,.26-2.54,.45-3.83,.58-14.68,1.57-31.52-3.3-42.97-12.61,1.99-8.96,6.89-18.27,11.48-26.19,15.71-27.08,40.9-53.72,71.98-61.86Z"/>
  <path class="cls-3" d="M363.51,348.5c6.61-.2,46.83-1.13,49.73,.61,.75,.45,1.04,2.29,1.14,3.11,.48,3.93,.93,14.24-1.41,17.24-3.84,2.12-23.01,.97-28.41,.95l-.43,30.75c6.33-.22,19.65-1.75,25.2,1.08,.65,.72,.96,1.31,1.13,2.26,.58,3.22,.73,15.52-.91,17.74-5.36,2.21-19.09,1.16-25.42,1.17l-.05,31.4c2.48,2.34,23.29-.68,28.44,.78,1.22,.35,2.05,.76,2.63,1.94,1.19,2.41,.59,15.15-.6,17.54-1.25,1.01-1.94,1.07-3.56,1.24-7.77,.82-16.23,.13-24.09,.2-7.05,.07-14.36,.86-21.39,.33-1.44-.11-2.68-.2-3.83-1.15-.36-.91-.59-1.66-.62-2.66-.78-25.17,.14-50.66,.37-75.86,.14-15.05-.76-30.45,.17-45.43,.11-1.78,.65-2.14,1.91-3.24Z"/>
  <path class="cls-3" d="M426.79,348.44c7.24-.1,14.63-.24,21.85,.25,5.79,15.41,9.76,31.99,14.66,47.74,4.61-15.94,8.82-32.07,13.85-47.88,5.73-.08,11.56-.33,17.29-.11,2.08,.08,4.6,.02,6.12,1.65,.68,2.42-17.39,53.14-20.04,60.93-1.95,6.01-4.95,12.34-5.78,18.6-1.24,9.41-.17,23.61-.1,33.5,.02,3.47,.52,7.91-.51,11.22-.32,1.02-.54,1.17-1.52,1.63-2.13,.99-17.83,.78-19.68-.33-3.57-2.14-.6-39.91-1.91-47.35-1.24-7.05-4.6-14.49-6.96-21.29l-15.64-44.43c-1.03-2.99-3.61-7.7-3.58-10.72,.02-1.67,.92-2.27,1.95-3.41Z"/>
  <path class="cls-3" d="M520.43,68.21c1.56,.59,3,1.28,4.36,2.26,4.08,2.94,7.69,6.82,11.15,10.45,18.79,19.79,29.57,44.59,34.17,71.28,3.84,24.76,.38,47.5-7.56,71.04-.21-12.07-.92-23.47-3.13-35.38-13.03-52.72-37.02-77.35-81.36-105.26,12.23-7.62,28.3-12,42.37-14.38Z"/>
  <path class="cls-2" d="M559.42,187.85c5.95-4.91,5.46-28.69,10.69-35.65,3.84,24.76,.38,47.5-7.56,71.04-.21-12.07-.92-23.47-3.13-35.38Z"/>
  <path class="cls-3" d="M685.03,348.41c4.39-.1,17.76-1.52,20.71,1.17,1.94,8.18,.81,26.9,.82,35.89l-.04,74.93c7.56,.43,23.16-.34,29.49,2.25,1.18,1.37,1.4,2.42,1.44,4.22,.13,5.35,1.37,12.67-2.49,16.82-8.68,.14-45.16-1.03-51.6-3.1-.87-2-.7-5.19-.73-7.38-.4-27.46,.04-54.98,.06-82.45l.02-27.43c0-3.65-.46-7.95,.02-11.52,.22-1.65,1.12-2.37,2.29-3.41Z"/>
  <path class="cls-3" d="M754.17,348.5c5.28-.05,14.86-1.33,19.27,1.42,1.68,9.81,.62,26.49,.62,36.88v76.56c4.58,.34,26.82,.28,29.15,2.54,1.9,1.85,1.42,9.32,1.44,11.84,.03,3.66,.12,6.2-2.59,8.95-5.84-.14-11.67-.34-17.51-.61-4.47-.19-30.13-.35-32.34-2.77-.57-2.55-1-5.01-1.09-7.63-.32-9.91-.02-19.93,0-29.85l.09-57.52c.01-7.51-1.03-31.05,.27-36.68,.38-1.65,1.39-2.23,2.69-3.14Z"/>
  <path class="cls-3" d="M232.05,348.46c5.15-.13,17.08-1.39,21.35,.84,1.84,8.21,.43,29.92,.33,39.53l-.16,68.5c6.89,.02,22.76-1.77,28.44,.16,1.31,1.44,1.54,2.86,1.59,4.75,.11,4.44,1.27,12.86-1.82,16.15-7.5,.7-46.13,2.62-50.43,.35-.24-.6-.44-1.13-.56-1.77-.8-4.42-.29-9.61-.26-14.13,.07-8.33,.09-16.65,.06-24.98l-.04-55.88c0-9.66-.42-19.48,.11-29.12,.1-1.84,.35-2.89,1.4-4.4Z"/>
  <path class="cls-3" d="M297.22,348.48c5.19-.22,17.19-1.23,21.59,.67,1.82,10.75,.34,24.3,.28,35.39,.07,23.92-.02,47.85-.27,71.77,6.7-.27,21.86-1.89,27.53,.46,2.12,2.41,1.5,12.76,1.24,16.2-.15,1.93-.71,2.88-2.14,4.13-7.27,.56-44.75,1.7-49.46,.35l.21-1.31-.38,.21c-.68-10.38-.38-124.16,.86-127.3l.52,.25-.19-.76,.21-.07Z"/>
  <path class="cls-2" d="M337.81,270.81c3.61,.67,8.05,3.51,11.48,5.04,4.95,2.27,10.05,4.21,15.25,5.81,34.48,10.38,71.81,9.13,106.08-1.4-2.4,5-5.32,9.71-8.45,14.28-2.05,2.8-4.23,5.63-6.66,8.12-5.39,5.52-11.47,9.35-19.44,9.34-37.79-.05-71.55-14.68-98.27-41.19Z"/>
  <path class="cls-3" d="M406.27,39.46l.57,.17c-.49,.95-.23,.74-1.01,1.29-27.49,19.36-44.41,41.83-56.39,73.13-2.25-2.23-4.33-4.55-6.39-6.96-3.45-4.5-7.36-9.93-8.89-15.46-1.09-3.95-1.05-8.73,1.05-12.36,2.31-3.99,6.64-7.11,10.2-9.99,18.3-14.81,38.17-23.87,60.86-29.81Z"/>
</svg>